<?xml version="1.0" encoding="utf-8"?>
<!-- Generator: Adobe Illustrator 19.2.1, SVG Export Plug-In . SVG Version: 6.00 Build 0)  -->
<svg version="1.1" id="Calque_1" xmlns="http://www.w3.org/2000/svg" xmlns:xlink="http://www.w3.org/1999/xlink" x="0px" y="0px"
	 viewBox="0 0 595.3 841.9" style="enable-background:new 0 0 595.3 841.9;" xml:space="preserve">
<g>
	<g>
		<path d="M42,197.7v448.7h512V197.7H42z M538.1,630.5H57.9v-343h480.3L538.1,630.5L538.1,630.5z M538.1,271.6H57.9v-58h480.3
			L538.1,271.6L538.1,271.6z"/>
	</g>
</g>
<g>
	<g>
		<rect x="81.6" y="234.6" width="21.1" height="15.9"/>
	</g>
</g>
<g>
	<g>
		<rect x="113.3" y="234.6" width="21.1" height="15.9"/>
	</g>
</g>
<g>
	<g>
		<rect x="493.3" y="234.6" width="21.1" height="15.9"/>
	</g>
</g>
<g>
	<g>
		<path d="M78.9,308.5v300.9h438.1V308.5H78.9z M342.9,593.5h-248V324.4h248V593.5z M501.2,593.5H358.7V398.3h142.5V593.5z
			 M501.2,382.4L501.2,382.4H358.7v-58h142.5V382.4z"/>
	</g>
</g>
<g>
	<g>
		<path d="M189.8,350.7v205.9h58.1V350.7H189.8z M232,540.7h-26.4V366.6H232V540.7z"/>
	</g>
</g>
<g>
	<g>
		<path d="M263.7,440.5v116.1h58.1V440.5H263.7z M279.5,540.7v-84.4h26.4v84.4H279.5z"/>
	</g>
</g>
<g>
	<g>
		<path d="M115.9,456.3v100.3H174V456.3H115.9z M158.1,540.7h-26.4v-68.6h26.4V540.7z"/>
	</g>
</g>
<g>
	<g>
		<rect x="377.2" y="345.5" width="68.6" height="15.9"/>
	</g>
</g>
<g>
	<g>
		<rect x="398.3" y="424.6" width="84.4" height="15.9"/>
	</g>
</g>
<g>
	<g>
		<rect x="377.2" y="461.6" width="105.6" height="15.9"/>
	</g>
</g>
<g>
	<g>
		<rect x="377.2" y="503.8" width="105.6" height="15.9"/>
	</g>
</g>
<g>
	<g>
		<rect x="377.2" y="546" width="89.7" height="15.9"/>
	</g>
</g>
<g>
	<g>
		<rect x="461.6" y="345.5" width="21.1" height="15.9"/>
	</g>
</g>
</svg>
