<?xml version="1.0" encoding="utf-8"?>
<!-- Generator: Adobe Illustrator 19.2.1, SVG Export Plug-In . SVG Version: 6.00 Build 0)  -->
<svg version="1.1" id="Calque_2" xmlns="http://www.w3.org/2000/svg" xmlns:xlink="http://www.w3.org/1999/xlink" x="0px" y="0px"
	 viewBox="0 0 595.3 841.9" style="enable-background:new 0 0 595.3 841.9;" xml:space="preserve">
<style type="text/css">
	.st0{stroke:#000000;stroke-width:6;stroke-miterlimit:10;}
	.st1{stroke:#000000;stroke-miterlimit:10;}
	.st2{fill:none;stroke:#000000;stroke-width:14;stroke-miterlimit:10;}
</style>
<g>
	<g>
		<path d="M553.5,111.3h-496c-4.4,0-8,3.6-8,8v102.6v384.8c0,4.4,3.6,8,8,8h496c4.4,0,8-3.6,8-8V221.9V119.3
			C561.5,114.9,557.9,111.3,553.5,111.3z M545.5,598.7H65.5V229.9h479.9L545.5,598.7L545.5,598.7z M545.5,213.9H65.5v-86.6h479.9
			L545.5,213.9L545.5,213.9z"/>
	</g>
</g>
<path class="st0" d="M485.7,161.5h-91.9c-4,0-7.3-3.3-7.3-7.3v0c0-4,3.3-7.3,7.3-7.3h91.9c4,0,7.3,3.3,7.3,7.3v0
	C493,158.2,489.7,161.5,485.7,161.5z"/>
<path class="st1" d="M530.5,162.9H510c-4,0-7.3-3.3-7.3-7.3v-2.7c0-4,3.3-7.3,7.3-7.3h20.6c4,0,7.3,3.3,7.3,7.3v2.7
	C537.9,159.6,534.6,162.9,530.5,162.9z"/>
<circle class="st2" cx="316.1" cy="170.6" r="27.2"/>
<circle class="st2" cx="228.5" cy="170.6" r="27.2"/>
<circle class="st2" cx="134.4" cy="170.6" r="27.2"/>
<g>
	<g>
		<path d="M226.9,339.1c0.2-6.4-2.2-12.5-6.6-17.2s-10.4-7.3-16.8-7.5c-6.4-0.2-12.5,2.2-17.2,6.6l-81.2,77
			c-4.9,4.6-7.6,11.1-7.5,17.8s3,13.1,8,17.6l81.2,72.7c4.4,4,10.1,6.1,16,6.1c0,0,0,0,0,0c6.8,0,13.4-2.9,17.9-8
			c8.8-9.9,8-25.1-1.9-34l-61.8-55.3l62.3-59C224,351.5,226.7,345.5,226.9,339.1z M208.3,344.2l-68.6,65c-1.6,1.5-2.5,3.7-2.5,5.9
			c0,2.2,1,4.4,2.7,5.9l68.3,61.1c3.3,2.9,3.6,8,0.6,11.3c-1.5,1.7-3.7,2.7-6,2.7c-2,0-3.9-0.7-5.3-2l-81.2-72.7
			c-1.7-1.5-2.6-3.6-2.7-5.9c0-2.2,0.9-4.4,2.5-5.9l81.2-77c1.5-1.4,3.4-2.2,5.5-2.2c0.1,0,0.1,0,0.2,0c2.1,0.1,4.1,0.9,5.6,2.5
			c1.5,1.6,2.3,3.6,2.2,5.7C210.8,340.8,209.9,342.8,208.3,344.2z"/>
	</g>
</g>
<g>
	<g>
		<path d="M522.9,397.9l-81.2-77c-9.6-9.1-24.9-8.7-34,0.9c-9.1,9.6-8.7,24.9,0.9,34l62.3,59l-61.8,55.3c-9.9,8.8-10.7,24.1-1.9,34
			c4.6,5.1,11.1,8,17.9,8c0,0,0,0,0,0c5.9,0,11.6-2.2,16-6.1l81.2-72.7c5-4.5,7.9-10.9,8-17.6C530.5,409,527.8,402.5,522.9,397.9z
			 M511.7,421.3L430.5,494c-1.5,1.3-3.4,2-5.3,2h0c-2.3,0-4.4-0.9-6-2.7c-2.9-3.3-2.7-8.4,0.6-11.3l68.3-61.1
			c1.7-1.5,2.6-3.6,2.7-5.9c0-2.2-0.9-4.4-2.5-5.9l-68.6-65c-3.2-3-3.3-8.1-0.3-11.3c1.6-1.7,3.7-2.5,5.8-2.5c2,0,4,0.7,5.5,2.2
			l81.2,77c1.6,1.5,2.5,3.7,2.5,5.9v0h0C514.4,417.7,513.4,419.9,511.7,421.3z"/>
	</g>
</g>
<g>
	<g>
		<path d="M375.7,340.7c-1.7-6.2-5.7-11.4-11.2-14.6c0,0,0,0,0,0c-11.5-6.6-26.2-2.6-32.8,8.8l-81.2,141.1
			c-6.6,11.5-2.6,26.2,8.8,32.8c3.6,2.1,7.8,3.2,12,3.2c8.6,0,16.6-4.6,20.9-12.1L373.3,359C376.5,353.4,377.4,346.9,375.7,340.7z
			 M359.4,351l-81.2,141.1c-1.4,2.5-4.1,4-7,4c-1.4,0-2.7-0.4-4-1.1c-3.8-2.2-5.2-7.1-2.9-10.9L345.5,343c1.5-2.6,4.2-4,7-4
			c1.4,0,2.7,0.3,4,1.1c1.9,1.1,3.2,2.8,3.7,4.9C360.8,346.9,360.5,349.1,359.4,351z"/>
	</g>
</g>
</svg>
