<?xml version="1.0" encoding="utf-8"?>
<!-- Generator: Adobe Illustrator 19.2.1, SVG Export Plug-In . SVG Version: 6.00 Build 0)  -->
<svg version="1.1" id="Calque_1" xmlns="http://www.w3.org/2000/svg" xmlns:xlink="http://www.w3.org/1999/xlink" x="0px" y="0px"
	 viewBox="0 0 595.3 841.9" style="enable-background:new 0 0 595.3 841.9;" xml:space="preserve">
<g>
	<path d="M404.4,554.9h-43.2c-1.6,0-2.8-1.3-2.8-2.8v-10.5c0-1.6-1.3-2.8-2.8-2.8h-60.5c-1.6,0-2.8,1.3-2.8,2.8v10.5
		c0,1.6-1.3,2.8-2.8,2.8h-32.5c-1.6,0-2.8,1.3-2.8,2.8v12.2c0,1.6,1.3,2.8,2.8,2.8h147.5c1.6,0,2.8-1.3,2.8-2.8v-12.2
		C407.3,556.2,406,554.9,404.4,554.9z"/>
	<g>
		<path d="M477,270.4H168.6c-10.7,0-19.5,8.7-19.5,19.5c0,0,0,37.1,0,50.8c0,6.7-0.5,7.7,4,7.7c2.4,0,5,0,7.7,0c3.8,0,3-0.9,3-7.8
			c0-13.6,0-50.6,0-50.6c0-2.6,2.2-4.7,4.7-4.7H477c2.6,0,4.7,2.2,4.7,4.7v190H261.9c0,0-7.7,0-7.7,10c0,5.9,0,17.8,0,23.8
			c0,10,8,10,8,10H477c10.7,0,19.5-8.7,19.5-19.5V289.8C496.5,279.1,487.8,270.4,477,270.4z M322.8,506.8c-4.8,0-8.8-3.9-8.8-8.8
			s3.9-8.8,8.8-8.8c4.8,0,8.8,3.9,8.8,8.8S327.7,506.8,322.8,506.8z"/>
		<path d="M224.1,365.6H112.6c-6.9,0-12.6,5.6-12.6,12.6v183.4c0,6.9,5.6,12.6,12.6,12.6h111.6c6.9,0,12.6-5.6,12.6-12.6V378.2
			C236.7,371.3,231,365.6,224.1,365.6z M154.6,378.4h27.5c1.3,0,2.4,1.1,2.4,2.4c0,1.3-1.1,2.4-2.4,2.4h-27.5
			c-1.3,0-2.4-1.1-2.4-2.4C152.2,379.5,153.3,378.4,154.6,378.4z M168.2,565.3c-3.6,0-6.5-2.9-6.5-6.5c0-3.6,2.9-6.5,6.5-6.5
			s6.5,2.9,6.5,6.5C174.7,562.4,171.8,565.3,168.2,565.3z M225.9,546.2c0,1.7-1.3,3-3,3H113.8c-1.6,0-3-1.4-3-3V393.8
			c0-1.7,1.3-3,3-3h109.1c1.6,0,3,1.4,3,3C225.9,393.8,225.9,546.2,225.9,546.2z"/>
	</g>
</g>
</svg>
