<?xml version="1.0" encoding="utf-8"?>
<!-- Generator: Adobe Illustrator 20.0.0, SVG Export Plug-In . SVG Version: 6.00 Build 0)  -->
<svg version="1.1" id="Calque_1" xmlns="http://www.w3.org/2000/svg" xmlns:xlink="http://www.w3.org/1999/xlink" x="0px" y="0px"
	 viewBox="0 0 595.3 841.9" style="enable-background:new 0 0 595.3 841.9;" xml:space="preserve">
<style type="text/css">
	.st0{fill:#FFFFFF;}
</style>
<g>
	<g>
		<g>
			<path class="st0" d="M50,174v400h496V174H50z M530,558H66V190h464V558z"/>
			<path class="st0" d="M362,206H82v176h280V206z M346,366H98V222h248V366z"/>
			<rect x="378" y="206" class="st0" width="136" height="16"/>
			<rect x="378" y="238" class="st0" width="136" height="16"/>
			<rect x="378" y="270" class="st0" width="136" height="16"/>
			<rect x="378" y="302" class="st0" width="136" height="16"/>
			<rect x="378" y="334" class="st0" width="136" height="16"/>
			<rect x="378" y="366" class="st0" width="136" height="16"/>
			<path class="st0" d="M218,398H82v144h136V398z M202,526H98V414h104V526z"/>
			<path class="st0" d="M234,542h128V398H234V542z M250,414h96v112h-96V414z"/>
			<path class="st0" d="M514,398H378v144h136V398z M498,526H394V414h104V526z"/>
			<path class="st0" d="M218,350c30.9,0,56-25.1,56-56s-25.1-56-56-56s-56,25.1-56,56S187.1,350,218,350z M218,254
				c22.1,0,40,17.9,40,40s-17.9,40-40,40s-40-17.9-40-40S195.9,254,218,254z"/>
			<path class="st0" d="M506,590H127.9l-70,40l70,40H506c22.1,0,40-17.9,40-40S528.1,590,506,590z M130,652.8L90.1,630l39.9-22.8
				V652.8z M434,654H146v-48h288V654z M466,654h-16v-48h16V654z M506,654h-24v-48h24c13.2,0,24,10.8,24,24S519.2,654,506,654z"/>
		</g>
	</g>
</g>
</svg>
