<?xml version="1.0" encoding="utf-8"?>
<!-- Generator: Adobe Illustrator 19.2.1, SVG Export Plug-In . SVG Version: 6.00 Build 0)  -->
<svg version="1.1" id="Calque_1" xmlns="http://www.w3.org/2000/svg" xmlns:xlink="http://www.w3.org/1999/xlink" x="0px" y="0px"
	 viewBox="0 0 595.3 841.9" style="enable-background:new 0 0 595.3 841.9;" xml:space="preserve">
<g>
	<g>
		<g>
			<rect x="194" y="622" width="64" height="16"/>
			<path d="M522,286H402v-72c0-22.1-17.9-40-40-40H90c-22.1,0-40,17.9-40,40v416c0,22.1,17.9,40,40,40h240h192c13.2,0,24-10.8,24-24
				V310C546,296.8,535.2,286,522,286z M66,214c0-13.2,10.8-24,24-24h272c13.2,0,24,10.8,24,24v8H66V214z M66,238h320v48h-16v-32H82
				v192h224v16h-80v16h80v16h-80v16h80v16h-80v16h80v16h-80v16h80v16H66V238z M90,654c-13.2,0-24-10.8-24-24v-24h240v40
				c0,2.8,0.6,5.5,1.5,8H90z M306,310v120H98V270h256v16h-24C316.8,286,306,296.8,306,310z M530,646c0,4.4-3.6,8-8,8H330
				c-4.4,0-8-3.6-8-8v-24h208V646z M530,606H322V350h208V606z M530,334H322v-24c0-4.4,3.6-8,8-8h192c4.4,0,8,3.6,8,8V334z"/>
			<path d="M226,286c-35.3,0-64,28.7-64,64s28.7,64,64,64s64-28.7,64-64S261.3,286,226,286z M226,398c-26.5,0-48-21.5-48-48
				c0-26.5,21.5-48,48-48s48,21.5,48,48C274,376.5,252.5,398,226,398z"/>
			<path d="M82,574h128V462H82V574z M98,478h96v80H98V478z"/>
			<path d="M514,366H338v128h176V366z M498,478H354v-96h144V478z"/>
			<path d="M426,462c17.6,0,32-14.4,32-32s-14.4-32-32-32s-32,14.4-32,32S408.4,462,426,462z M426,414c8.8,0,16,7.2,16,16
				s-7.2,16-16,16s-16-7.2-16-16S417.2,414,426,414z"/>
			<path d="M418,510h-80v80h80V510z M402,574h-48v-48h48V574z"/>
			<rect x="434" y="510" width="80" height="16"/>
			<rect x="434" y="542" width="80" height="16"/>
			<rect x="434" y="574" width="80" height="16"/>
		</g>
	</g>
</g>
</svg>
