<?xml version="1.0" encoding="utf-8"?>
<!-- Generator: Adobe Illustrator 19.2.1, SVG Export Plug-In . SVG Version: 6.00 Build 0)  -->
<svg version="1.1" id="Calque_1" xmlns="http://www.w3.org/2000/svg" xmlns:xlink="http://www.w3.org/1999/xlink" x="0px" y="0px"
	 viewBox="0 0 595.3 841.9" style="enable-background:new 0 0 595.3 841.9;" xml:space="preserve">
<g>
	<path d="M42,374c0,29.8,20.4,54.6,48,61.8V646H58c-8.8,0-16,7.2-16,16s7.2,16,16,16h480c8.9,0,16-7.2,16-16s-7.1-16-16-16h-32
		V435.8c27.6-7.2,48-32,48-61.8v-16H42V374z M362,438c35.4,0,64-28.7,64-64c0,29.8,20.4,54.6,48,61.8V646H234V438
		c35.4,0,64-28.7,64-64C298,409.3,326.7,438,362,438z M218,435.8V646h-96V435.8c27.6-7.2,48-32,48-61.8
		C170,403.8,190.4,428.6,218,435.8z M490,214H106L42,342h512L490,214z M177.2,249.6l-32,64c-1.4,2.8-4.3,4.4-7.2,4.4
		c-1.2,0-2.4-0.3-3.6-0.8c-3.9-2-5.6-6.8-3.6-10.7l32-64c2-3.9,6.8-5.5,10.7-3.6C177.6,240.8,179.1,245.6,177.2,249.6z M241.2,249.6
		l-32,64c-1.4,2.8-4.3,4.4-7.2,4.4c-1.2,0-2.4-0.3-3.6-0.8c-3.9-2-5.6-6.8-3.6-10.7l32-64c2-3.9,6.8-5.5,10.7-3.6
		C241.6,240.8,243.1,245.6,241.2,249.6z M306,310c0,4.4-3.6,8-8,8c-4.4,0-8-3.6-8-8v-64c0-4.4,3.6-8,8-8c4.4,0,8,3.6,8,8V310z
		 M397.9,317c-1.3,0.7-2.6,1-3.9,1c-2.8,0-5.6-1.5-7-4.2l-35-64c-2.1-3.9-0.7-8.8,3.2-10.8c3.8-2.1,8.8-0.8,10.9,3.2l35,64
		C403.1,310,401.8,314.9,397.9,317z M461.6,317.2c-1.1,0.6-2.3,0.8-3.6,0.8c-2.9,0-5.8-1.6-7.1-4.4l-32-64c-2-3.9-0.4-8.8,3.6-10.7
		c3.9-2,8.8-0.4,10.8,3.6l32,64C467.1,310.4,465.6,315.2,461.6,317.2z M178,552.4v-36.9c-4.7-2.8-8-7.7-8-13.6c0-8.8,7.2-16,16-16
		c8.9,0,16,7.2,16,16c0,5.9-3.3,10.8-8,13.6v36.9c4.7,2.8,8,7.7,8,13.6c0,8.8-7.1,16-16,16c-8.8,0-16-7.2-16-16
		C170,560.1,173.3,555.3,178,552.4z M106,182c0-8.8,7.2-16,16-16h352c8.9,0,16,7.2,16,16s-7.1,16-16,16H122
		C113.2,198,106,190.8,106,182z M322.4,523.7l-11.3-11.3l45.3-45.3l11.3,11.3L322.4,523.7z M322.4,568.9l-11.3-11.3l90.5-90.5
		l11.3,11.3L322.4,568.9z M401.6,512.3l11.3,11.3l-45.3,45.3l-11.3-11.3L401.6,512.3z"/>
</g>
</svg>
