<?xml version="1.0" encoding="utf-8"?>
<!-- Generator: Adobe Illustrator 19.2.1, SVG Export Plug-In . SVG Version: 6.00 Build 0)  -->
<svg version="1.1" id="Calque_1" xmlns="http://www.w3.org/2000/svg" xmlns:xlink="http://www.w3.org/1999/xlink" x="0px" y="0px"
	 viewBox="0 0 595.3 841.9" style="enable-background:new 0 0 595.3 841.9;" xml:space="preserve">
<g>
	<path d="M426.9,314.2c-78.7,0-106.6,51.1-106.6,94.9v153.2c0,43.8,27.9,94.9,106.6,94.9s106.6-51.1,106.6-94.9V409.1
		C533.5,365.4,505.6,314.2,426.9,314.2z M518.5,562.3c0,9.2-1.8,32.7-18.2,51.9c-15.8,18.6-40.5,28-73.4,28s-57.6-9.4-73.4-28
		c-16.4-19.2-18.2-42.7-18.2-51.9V409.1c0-9.2,1.8-32.7,18.2-51.9c15.8-18.6,40.5-28,73.4-28s57.6,9.4,73.4,28
		c16.4,19.2,18.2,42.7,18.2,51.9V562.3z"/>
	<path d="M362.4,202.2c31.4,0,57,25.6,57,57v32.5c0,4.1,3.4,7.5,7.5,7.5s7.5-3.4,7.5-7.5v-32.5c0-39.7-32.3-72-72-72
		c-39.7,0-72,32.1-72,71.6v199.7c0,31.2-25.6,56.6-57,56.6s-57-25.6-57-57v-59.7c54.8-3.9,98.3-49.7,98.3-105.5
		c0-58.3-47.5-105.8-105.8-105.8S63,234.7,63,293c0,55.8,43.4,101.7,98.3,105.5v59.7c0,39.7,32.3,72,72,72s72-32.1,72-71.6V258.9
		C305.3,227.6,330.9,202.2,362.4,202.2z M78,293c0-50.1,40.7-90.8,90.8-90.8s90.8,40.7,90.8,90.8s-40.7,90.8-90.8,90.8
		S78,343.1,78,293z"/>
	<path d="M168.8,314.5c-3.1,0-5.6-2.5-5.6-5.6c0-4.1-3.4-7.5-7.5-7.5s-7.5,3.4-7.5,7.5c0,8.7,5.5,16.2,13.1,19.2v3.2
		c0,4.1,3.4,7.5,7.5,7.5c4.1,0,7.5-3.4,7.5-7.5v-3.2c7.7-3,13.1-10.5,13.1-19.2c0-14.5-11.8-20-17.4-22.6c-6.9-3.2-8.8-5.2-8.8-9.1
		c0-3.1,2.5-5.6,5.6-5.6s5.6,2.5,5.6,5.6c0,4.1,3.4,7.5,7.5,7.5s7.5-3.4,7.5-7.5c0-8.7-5.5-16.2-13.1-19.2v-3.2
		c0-4.1-3.4-7.5-7.5-7.5c-4.1,0-7.5,3.4-7.5,7.5v3.2c-7.7,3-13.1,10.5-13.1,19.2c0,14.5,11.8,20,17.4,22.6c6.9,3.2,8.8,5.2,8.8,9.1
		C174.4,312,171.9,314.5,168.8,314.5L168.8,314.5z"/>
	<path d="M244.6,293c0-41.8-34-75.8-75.8-75.8c-17.3,0-34.2,6-47.6,16.9c-13.2,10.7-22.6,25.7-26.3,42.2c-0.9,4,1.6,8.1,5.7,9
		c4,0.9,8.1-1.6,9-5.7c6.2-27.5,31.1-47.4,59.3-47.4c33.5,0,60.8,27.3,60.8,60.8s-27.3,60.8-60.8,60.8c-28.2,0-53.1-19.9-59.3-47.4
		c-0.9-4-4.9-6.6-9-5.7c-4,0.9-6.6,4.9-5.7,9c3.7,16.5,13.1,31.5,26.3,42.2c13.4,10.9,30.4,16.9,47.6,16.9
		C210.6,368.8,244.6,334.8,244.6,293z"/>
	<path d="M434.4,478.2v-26.1c11.1-3.3,19.3-13.6,19.3-25.7v-35.6c0-12.2-8.2-22.5-19.3-25.7v-13.3c0-4.1-3.4-7.5-7.5-7.5
		s-7.5,3.4-7.5,7.5v13.3c-11.1,3.3-19.3,13.6-19.3,25.7v35.6c0,12.2,8.2,22.5,19.3,25.7v26.1h-61.6c-4.1,0-7.5,3.4-7.5,7.5
		s3.4,7.5,7.5,7.5H496c4.1,0,7.5-3.4,7.5-7.5s-3.4-7.5-7.5-7.5L434.4,478.2L434.4,478.2z M415.1,426.4v-35.6
		c0-6.5,5.3-11.8,11.8-11.8s11.8,5.3,11.8,11.8v35.6c0,6.5-5.3,11.8-11.8,11.8S415.1,432.9,415.1,426.4z"/>
</g>
</svg>
