<?xml version="1.0" encoding="utf-8"?>
<!-- Generator: Adobe Illustrator 19.2.1, SVG Export Plug-In . SVG Version: 6.00 Build 0)  -->
<svg version="1.1" id="Calque_1" xmlns="http://www.w3.org/2000/svg" xmlns:xlink="http://www.w3.org/1999/xlink" x="0px" y="0px"
	 viewBox="0 0 595.3 841.9" style="enable-background:new 0 0 595.3 841.9;" xml:space="preserve">
<g>
	<path d="M525.5,209.5h-455c-4.1,0-7.5,3.4-7.5,7.5v410c0,4.1,3.4,7.5,7.5,7.5h455c4.1,0,7.5-3.4,7.5-7.5v-80c0-4.1-3.4-7.5-7.5-7.5
		s-7.5,3.4-7.5,7.5v72.5H78v-335h440V517c0,4.1,3.4,7.5,7.5,7.5s7.5-3.4,7.5-7.5V217C533,212.9,529.6,209.5,525.5,209.5z M78,224.5
		h277.5v45H78V224.5z M370.5,269.5v-45H518v45H370.5z"/>
	<path d="M444.5,239c-4.4,0-8,3.6-8,8s3.6,8,8,8s8-3.6,8-8C452.5,242.6,448.9,239,444.5,239z"/>
	<path d="M403.5,239c-4.4,0-8,3.6-8,8s3.6,8,8,8s8-3.6,8-8C411.5,242.6,407.9,239,403.5,239z"/>
	<path d="M485.5,239c-4.4,0-8,3.6-8,8s3.6,8,8,8s8-3.6,8-8C493.5,242.6,489.9,239,485.5,239z"/>
	<path d="M332.7,515.5c0,2,0.8,3.9,2.2,5.3l58.5,58.5c1.4,1.4,3.3,2.2,5.3,2.2s3.9-0.8,5.3-2.2l21.2-21.2c2.9-2.9,2.9-7.7,0-10.6
		l-58.5-58.5c-2.9-2.9-7.7-2.9-10.6,0l-5.3,5.3L340,483.4c32.8-38.3,31.1-96.1-5.1-132.4c-18.4-18.4-42.9-28.6-68.9-28.6
		s-50.5,10.1-68.9,28.6c-38,38-38,99.9,0,137.9c18.4,18.4,42.9,28.6,68.9,28.6c23.5,0,45.8-8.3,63.4-23.5l10.8,10.8l-5.3,5.3
		C333.5,511.6,332.7,513.5,332.7,515.5L332.7,515.5z M207.7,478.3c-32.2-32.2-32.2-84.5,0-116.7c15.6-15.6,36.3-24.2,58.3-24.2
		s42.8,8.6,58.3,24.2c32.2,32.2,32.2,84.5,0,116.7c-15.6,15.6-36.3,24.2-58.3,24.2S223.2,493.9,207.7,478.3z M409.4,552.8
		l-10.6,10.6l-47.9-47.9l5.3-5.3c0,0,5.3-5.3,5.3-5.3L409.4,552.8z"/>
	<path d="M313.7,372.3C301,359.5,284,352.5,266,352.5c-18,0-35,7-47.7,19.8c-26.3,26.3-26.3,69.1,0,95.5
		c12.8,12.7,29.7,19.8,47.7,19.8c18,0,35-7,47.7-19.8C340,441.4,340,398.6,313.7,372.3z M303.1,457.1c-9.9,9.9-23.1,15.4-37.1,15.4
		c-14,0-27.2-5.5-37.1-15.4c-20.5-20.5-20.5-53.8,0-74.2c9.9-9.9,23.1-15.4,37.1-15.4c14,0,27.2,5.5,37.1,15.4
		C323.6,403.3,323.6,436.7,303.1,457.1z"/>
</g>
<rect x="518" y="504.9" width="15" height="58.5"/>
</svg>
